REM DIRINDEX 1\2,1\3,1\4,1\5,1\6
REM DIRNAME cjc030,folder01,folder02,folder03,folder04,folder05
TITLE ""
FILE "Disc2Track39.mp3" MP3
  TRACK 01 AUDIO
    TITLE "3:cjc030_03250"
    INDEX 01 00:00:00
  TRACK 02 AUDIO
    TITLE "0:"
    INDEX 01 00:01:11
  TRACK 03 AUDIO
    TITLE "4:cjc030_03251"
    INDEX 01 00:01:19
  TRACK 04 AUDIO
    TITLE "0:"
    INDEX 01 00:04:31
  TRACK 05 AUDIO
    TITLE "5:cjc030_03252"
    INDEX 01 00:04:40
  TRACK 06 AUDIO
    TITLE "0:"
    INDEX 01 00:05:54
  TRACK 07 AUDIO
    TITLE "6:cjc030_03253"
    INDEX 01 00:05:67
  TRACK 08 AUDIO
    TITLE "0:"
    INDEX 01 00:10:57
  TRACK 09 AUDIO
    TITLE "3:cjc030_03254"
    INDEX 01 00:11:27
  TRACK 10 AUDIO
    TITLE "0:"
    INDEX 01 00:12:50
  TRACK 11 AUDIO
    TITLE "4:cjc030_03255"
    INDEX 01 00:12:61
  TRACK 12 AUDIO
    TITLE "0:"
    INDEX 01 00:13:65
  TRACK 13 AUDIO
    TITLE "5:cjc030_03256"
    INDEX 01 00:14:00
  TRACK 14 AUDIO
    TITLE "0:"
    INDEX 01 00:15:25
  TRACK 15 AUDIO
    TITLE "3:cjc030_03257"
    INDEX 01 00:16:02
  TRACK 16 AUDIO
    TITLE "0:"
    INDEX 01 00:17:31
  TRACK 17 AUDIO
    TITLE "4:cjc030_03258"
    INDEX 01 00:17:39
  TRACK 18 AUDIO
    TITLE "0:"
    INDEX 01 00:19:34
  TRACK 19 AUDIO
    TITLE "5:cjc030_03259"
    INDEX 01 00:19:42
  TRACK 20 AUDIO
    TITLE "0:"
    INDEX 01 00:20:69
  TRACK 21 AUDIO
    TITLE "6:cjc030_03260"
    INDEX 01 00:21:08
  TRACK 22 AUDIO
    TITLE "0:"
    INDEX 01 00:23:51
  TRACK 23 AUDIO
    TITLE "3:cjc030_03261"
    INDEX 01 00:24:22
  TRACK 24 AUDIO
    TITLE "0:"
    INDEX 01 00:25:56
  TRACK 25 AUDIO
    TITLE "4:cjc030_03262"
    INDEX 01 00:25:66
  TRACK 26 AUDIO
    TITLE "0:"
    INDEX 01 00:27:43
  TRACK 27 AUDIO
    TITLE "5:cjc030_03263"
    INDEX 01 00:27:51
  TRACK 28 AUDIO
    TITLE "0:"
    INDEX 01 00:29:13
  TRACK 29 AUDIO
    TITLE "3:cjc030_03264"
    INDEX 01 00:29:66
  TRACK 30 AUDIO
    TITLE "0:"
    INDEX 01 00:31:02
  TRACK 31 AUDIO
    TITLE "4:cjc030_03265"
    INDEX 01 00:31:10
  TRACK 32 AUDIO
    TITLE "0:"
    INDEX 01 00:34:28
  TRACK 33 AUDIO
    TITLE "5:cjc030_03266"
    INDEX 01 00:34:36
  TRACK 34 AUDIO
    TITLE "0:"
    INDEX 01 00:35:45
  TRACK 35 AUDIO
    TITLE "6:cjc030_03267"
    INDEX 01 00:35:59
  TRACK 36 AUDIO
    TITLE "0:"
    INDEX 01 00:39:72
  TRACK 37 AUDIO
    TITLE "3:cjc030_03268"
    INDEX 01 00:40:42
  TRACK 38 AUDIO
    TITLE "0:"
    INDEX 01 00:41:57
  TRACK 39 AUDIO
    TITLE "4:cjc030_03269"
    INDEX 01 00:41:67
  TRACK 40 AUDIO
    TITLE "0:"
    INDEX 01 00:42:66
  TRACK 41 AUDIO
    TITLE "5:cjc030_03270"
    INDEX 01 00:42:72
  TRACK 42 AUDIO
    TITLE "0:"
    INDEX 01 00:44:16
  TRACK 43 AUDIO
    TITLE "6:cjc030_03271"
    INDEX 01 00:44:26
  TRACK 44 AUDIO
    TITLE "0:"
    INDEX 01 00:46:54
  TRACK 45 AUDIO
    TITLE "3:cjc030_03272"
    INDEX 01 00:47:30
  TRACK 46 AUDIO
    TITLE "0:"
    INDEX 01 00:48:42
  TRACK 47 AUDIO
    TITLE "4:cjc030_03273"
    INDEX 01 00:48:49
  TRACK 48 AUDIO
    TITLE "0:"
    INDEX 01 00:51:40
  TRACK 49 AUDIO
    TITLE "5:cjc030_03274"
    INDEX 01 00:51:48
  TRACK 50 AUDIO
    TITLE "0:"
    INDEX 01 00:52:61
  TRACK 51 AUDIO
    TITLE "6:cjc030_03275"
    INDEX 01 00:52:73
  TRACK 52 AUDIO
    TITLE "0:"
    INDEX 01 00:56:10
  TRACK 53 AUDIO
    TITLE "3:cjc030_03276"
    INDEX 01 00:56:59
  TRACK 54 AUDIO
    TITLE "0:"
    INDEX 01 00:58:03
  TRACK 55 AUDIO
    TITLE "4:cjc030_03277"
    INDEX 01 00:58:13
  TRACK 56 AUDIO
    TITLE "0:"
    INDEX 01 00:59:06
  TRACK 57 AUDIO
    TITLE "5:cjc030_03278"
    INDEX 01 00:59:16
  TRACK 58 AUDIO
    TITLE "0:"
    INDEX 01 01:00:33
  TRACK 59 AUDIO
    TITLE "3:cjc030_03279"
    INDEX 01 01:01:15
  TRACK 60 AUDIO
    TITLE "0:"
    INDEX 01 01:02:34
  TRACK 61 AUDIO
    TITLE "4:cjc030_03280"
    INDEX 01 01:02:42
  TRACK 62 AUDIO
    TITLE "0:"
    INDEX 01 01:03:39
  TRACK 63 AUDIO
    TITLE "5:cjc030_03281"
    INDEX 01 01:03:45
  TRACK 64 AUDIO
    TITLE "0:"
    INDEX 01 01:04:66
  TRACK 65 AUDIO
    TITLE "6:cjc030_03282"
    INDEX 01 01:05:05
  TRACK 66 AUDIO
    TITLE "0:"
    INDEX 01 01:07:06
